<svg xmlns="http://www.w3.org/2000/svg" width="33.542" height="32" viewBox="0 0 33.542 32">
  <g id="Group_1534" data-name="Group 1534" transform="translate(-943.665 -243.743)">
    <path id="tick" d="M32.045,24.912a15.309,15.309,0,0,0-2.466-4.984l-1.524-1.909a23.628,23.628,0,0,0-1.389-4.826l1.554-.47a7.492,7.492,0,0,0,4.186-3.693l1.053-2.387a.983.983,0,1,0-1.8-.793L30.607,8.236a5.547,5.547,0,0,1-2.957,2.605l-1.8.544c-.25-.5-.515-.994-.8-1.467a19.964,19.964,0,0,0-1.376-2.041l1.379-.418a2.944,2.944,0,0,0,1.987-1.791,2.945,2.945,0,0,0-.415-2.642L24.877.432a.983.983,0,1,0-1.627,1.1l1.757,2.6a1,1,0,0,1,.19.883,1,1,0,0,1-.7.567l-2.249.681A9.043,9.043,0,0,0,18.5,3.967L20.2,1.55A.983.983,0,0,0,18.6.415L16.771,3,14.942.415a.983.983,0,0,0-1.6,1.135l1.709,2.417A9.046,9.046,0,0,0,11.3,6.259L9.049,5.578a1,1,0,0,1-.7-.566,1,1,0,0,1,.19-.883l1.757-2.595A.983.983,0,1,0,8.664.432L6.907,3.027a2.945,2.945,0,0,0-.415,2.642A2.944,2.944,0,0,0,8.479,7.46l1.379.418A19.941,19.941,0,0,0,8.483,9.918c-.28.473-.545.964-.8,1.467l-1.8-.544A5.548,5.548,0,0,1,2.935,8.236L1.882,5.849a.983.983,0,0,0-1.8.793L1.136,9.029a7.491,7.491,0,0,0,4.185,3.693l1.554.471a23.623,23.623,0,0,0-1.389,4.826L3.962,19.928A15.305,15.305,0,0,0,1.5,24.912L.03,30.779a.983.983,0,1,0,1.906.477L3.4,25.388a13.719,13.719,0,0,1,1.9-3.972,11.508,11.508,0,0,0,22.942,0,13.705,13.705,0,0,1,1.9,3.972l1.467,5.868a.983.983,0,1,0,1.906-.477ZM13.151,8.633c1.107-1.872,2.427-2.946,3.62-2.946s2.512,1.074,3.62,2.946A11.958,11.958,0,0,1,22.1,14.177a5.332,5.332,0,0,1-10.665,0A11.958,11.958,0,0,1,13.151,8.633Zm3.62,21.4a9.553,9.553,0,0,1-9.543-9.543,12.838,12.838,0,0,1,.149-1.87c.006-.031.01-.061.014-.092a21.7,21.7,0,0,1,1.7-5.521l.012-.027c.238-.522.5-1.034.769-1.531a10.907,10.907,0,0,0-.4,2.726,7.3,7.3,0,0,0,14.6,0,10.9,10.9,0,0,0-.4-2.725c.274.5.532,1.01.77,1.532l.012.026a21.719,21.719,0,0,1,1.7,5.517.962.962,0,0,0,.014.1,12.855,12.855,0,0,1,.148,1.869,9.553,9.553,0,0,1-9.543,9.542Zm0,0" transform="translate(943.665 243.743)" fill="#fff"/>
    <path id="Path_283" data-name="Path 283" d="M13639.311,1401.739l1.132.629v3.206l.314,2.829,1.7,2.515,2.767,1.006h3.206l2.074-1.006,1.823-2.515.5-4.086v-2.578l.88.629,1.761,3.206,1.194,4.275v3.961l-1.194,3.772-3.144,3.332-3.395,1.446-3.709.5-2.767-1.069-2.829-1.194-2.074-2.578-1.7-4.212V1410.6l1.7-5.532Z" transform="translate(-12686 -1148)" fill="#fff"/>
  </g>
</svg>
