<svg id="Group_1542" data-name="Group 1542" xmlns="http://www.w3.org/2000/svg" width="29.449" height="32" viewBox="0 0 29.449 32">
  <path id="Path_287" data-name="Path 287" d="M35.5.253a.59.59,0,0,0-.738-.2A27.048,27.048,0,0,0,23,11.2a33.562,33.562,0,0,1,4.9,12.572c.126-5.245,1.166-16.55,7.53-22.76A.591.591,0,0,0,35.5.253Z" transform="translate(-8.321 0)" fill="#fff"/>
  <path id="Path_288" data-name="Path 288" d="M9.269,6.862a.583.583,0,0,0-.323-.1.591.591,0,0,0-.466.954c6.417,8.218,4.639,22.4,4.124,25.668a.591.591,0,0,0,.583.685h8.26a.591.591,0,0,0,.591-.6C21.847,17.5,14,9.964,9.269,6.862Z" transform="translate(-3.834 -2.073)" fill="#fff"/>
  <path id="Path_289" data-name="Path 289" d="M2.272,27.534a.28.28,0,0,0-.375.406c3.043,3.9,2.2,10.621,1.955,12.169a.27.27,0,0,0,.063.22.275.275,0,0,0,.214.092H8.046a.277.277,0,0,0,.2-.076.272.272,0,0,0,.081-.2C8.236,32.574,4.518,29,2.272,27.534Z" transform="translate(-1.838 -8.421)" fill="#fff"/>
  <path id="Path_290" data-name="Path 290" d="M40.239,20.535a.386.386,0,0,0-.5-.062c-3.1,2.028-8.223,6.956-8.349,17.4a.376.376,0,0,0,.387.377h5.4a.379.379,0,0,0,.294-.13.385.385,0,0,0,.087-.307c-.336-2.135-1.5-11.408,2.7-16.783A.383.383,0,0,0,40.239,20.535Z" transform="translate(-10.893 -6.253)" fill="#fff"/>
</svg>
