<svg xmlns="http://www.w3.org/2000/svg" viewBox="0 0 118 137" width="118" height="137">
	<style>
		tspan { white-space:pre }
		.shp0 { fill: #4b7bec } 
	</style>
	<path id="Path_284" class="shp0" d="M84.69 123.35C90.36 120.08 95.34 115.71 99.33 110.51C103.31 105.32 106.24 99.38 107.94 93.05C109.63 86.72 110.07 80.12 109.21 73.62C108.36 67.13 106.23 60.86 102.95 55.19L102.95 55.19C100.11 50.26 96.44 45.86 92.12 42.17C87.79 38.48 82.87 35.56 77.56 33.53C72.24 31.5 66.63 30.39 60.94 30.25C55.26 30.11 49.59 30.95 44.19 32.72C43.25 33.02 42.26 33.16 41.28 33.12C40.29 33.09 39.32 32.9 38.4 32.54C37.48 32.18 36.63 31.67 35.88 31.02C35.13 30.38 34.5 29.61 34.01 28.75L34.01 28.75C33.67 28.14 33.39 27.49 33.17 26.82C32.95 26.15 32.8 25.47 32.72 24.77C32.64 24.07 32.63 23.36 32.69 22.66C32.74 21.96 32.87 21.26 33.06 20.59C33.23 19.99 33.33 19.38 33.37 18.76C33.41 18.14 33.39 17.52 33.31 16.91C33.23 16.29 33.09 15.69 32.89 15.1C32.69 14.51 32.44 13.95 32.13 13.41L32.13 13.41C31.64 12.55 31.02 11.77 30.29 11.1C29.56 10.44 28.73 9.89 27.82 9.48C26.92 9.07 25.96 8.81 24.98 8.71C23.99 8.6 23 8.65 22.03 8.86C20.56 9.17 19.19 9.82 18.03 10.76C16.86 11.7 15.93 12.9 15.32 14.27C14.71 15.64 14.43 17.13 14.51 18.62C14.58 20.12 15.01 21.57 15.76 22.87L15.76 22.87C16.07 23.41 16.43 23.91 16.84 24.38C17.25 24.85 17.7 25.27 18.19 25.65C18.69 26.02 19.21 26.35 19.77 26.62C20.33 26.89 20.91 27.11 21.51 27.27C22.19 27.44 22.85 27.68 23.49 27.98C24.13 28.28 24.73 28.64 25.3 29.06C25.86 29.48 26.38 29.96 26.85 30.48C27.33 31 27.74 31.57 28.1 32.18L28.1 32.18C28.6 33.03 28.95 33.96 29.13 34.93C29.32 35.9 29.34 36.89 29.19 37.87C29.04 38.84 28.72 39.78 28.26 40.65C27.79 41.52 27.18 42.3 26.45 42.97C22.21 46.76 18.66 51.25 15.93 56.24C13.21 61.24 11.36 66.66 10.47 72.27C9.57 77.89 9.64 83.61 10.67 89.21C11.7 94.8 13.68 100.17 16.53 105.1L16.53 105.1C19.8 110.77 24.16 115.75 29.36 119.73C34.56 123.72 40.5 126.65 46.83 128.35C53.16 130.04 59.76 130.48 66.25 129.62C72.75 128.76 79.02 126.64 84.69 123.36" />
</svg>