<svg xmlns="http://www.w3.org/2000/svg" width="33.515" height="32" viewBox="0 0 33.515 32">
  <g id="Group_1416" data-name="Group 1416" transform="translate(-540 -1345)">
    <path id="Path_48" data-name="Path 48" d="M2735.123,142.857a18.628,18.628,0,0,0-7.216-8.1,23.7,23.7,0,0,0-2.829-1.575l-.165-.077,0-.216a6.089,6.089,0,0,0-3.666-5.582l-.382-.166,2.458-2.458a.978.978,0,0,0-1.383-1.383l-3.1,3.1-3.07-3.07a.978.978,0,0,0-1.383,1.382l2.421,2.421-.383.165a6.087,6.087,0,0,0-3.685,5.591.126.126,0,0,0,0,.014l0,.2-.166.078a23.716,23.716,0,0,0-2.829,1.575,18.63,18.63,0,0,0-7.215,8.1,6.107,6.107,0,0,0,8.356,7.81l.233-.115.135.222a8.873,8.873,0,0,0,15.136,0l.135-.222.233.115a6.11,6.11,0,0,0,8.356-7.81Zm-20.286-11.02a4.13,4.13,0,0,1,7.988,0l.128.485-.481-.141a9.518,9.518,0,0,0-2.614-.436H2717.8a9.52,9.52,0,0,0-2.614.436l-.481.141Zm8.033,13.332h-8.079l4.04-9.866Zm-10.852,1.613a4.127,4.127,0,0,1-1.1,1.536l-.012.01-.038.032a4.153,4.153,0,0,1-6.521-4.756c1.784-4.308,6.362-7.515,9.74-8.953l.02-.008a.95.95,0,0,0,.128-.053l.02-.009a12.529,12.529,0,0,1,2.618-.8l.5-.084Zm12.863,2.712a6.916,6.916,0,0,1-12.1,0l-.095-.172.128-.149a6.138,6.138,0,0,0,1.012-1.646l.165-.4h9.68l.167.409a6.119,6.119,0,0,0,1.01,1.641l.128.149Zm6.188-.465a4.146,4.146,0,0,1-4.282-.675l-.006,0-.02-.017-.011-.009a4.163,4.163,0,0,1-1.1-1.536l-5.358-13.087.5.084a12.5,12.5,0,0,1,2.625.8l.018.009a.955.955,0,0,0,.117.048l.019.007c3.38,1.437,7.961,4.646,9.747,8.958A4.157,4.157,0,0,1,2731.069,149.031Z" transform="translate(-2162.074 1221.985)" fill="#fff"/>
    <g id="Group_1415" data-name="Group 1415" transform="translate(550.962 1354.64)">
      <path id="Path_50" data-name="Path 50" d="M713.229,1408.028l-5.067,14.425h11.646l-5.639-14.425Z" transform="translate(-708.162 -1408.028)" fill="#fff"/>
    </g>
  </g>
</svg>
