<svg xmlns="http://www.w3.org/2000/svg" width="32" height="32" viewBox="0 0 32 32">
  <g id="virus_2_" data-name="virus (2)" transform="translate(0 0)">
    <path id="Path_297" data-name="Path 297" d="M31.063,11.917a.937.937,0,1,0,0-1.875h-2.13a7.9,7.9,0,0,0-.592-2.206L30.186,6.77a.938.938,0,1,0-.937-1.624L27.4,6.213A8.036,8.036,0,0,0,25.787,4.6l1.067-1.847a.937.937,0,1,0-1.624-.937L24.165,3.66a7.9,7.9,0,0,0-2.206-.592V.938a.937.937,0,1,0-1.875,0v2.13a7.9,7.9,0,0,0-2.206.592L16.812,1.814a.937.937,0,0,0-1.624.937L16.255,4.6a8.036,8.036,0,0,0-1.614,1.614L12.793,5.146a.938.938,0,1,0-.937,1.624L13.7,7.836a7.922,7.922,0,0,0-.647,3.143,2.08,2.08,0,0,1-.1.646l-1.309-1.309a.937.937,0,0,0-1.326,1.326l1.309,1.309a2.078,2.078,0,0,1-.646.1,7.922,7.922,0,0,0-3.144.647L6.77,11.856a.937.937,0,1,0-1.624.938l1.067,1.847A8.033,8.033,0,0,0,4.6,16.255L2.751,15.188a.938.938,0,1,0-.937,1.624L3.66,17.877a7.9,7.9,0,0,0-.592,2.206H.938a.938.938,0,1,0,0,1.875h2.13a7.9,7.9,0,0,0,.592,2.206L1.814,25.23a.938.938,0,1,0,.937,1.624L4.6,25.787A8.035,8.035,0,0,0,6.213,27.4L5.147,29.249a.937.937,0,1,0,1.624.938l1.066-1.846a7.9,7.9,0,0,0,2.206.591v2.13a.938.938,0,1,0,1.875,0v-2.1a17.9,17.9,0,0,0,2.812-.37l.543,2.028a.938.938,0,0,0,1.811-.485l-.544-2.028q.672-.219,1.331-.491t1.289-.594l1.05,1.818a.937.937,0,0,0,1.624-.937l-1.049-1.818a17.907,17.907,0,0,0,2.25-1.727l1.484,1.485a.937.937,0,0,0,1.326-1.326l-1.484-1.485a17.9,17.9,0,0,0,1.727-2.25L27.9,21.833a.937.937,0,1,0,.938-1.624l-1.818-1.05q.321-.63.594-1.288t.491-1.332l2.028.543a.937.937,0,0,0,.485-1.811l-2.027-.543a17.9,17.9,0,0,0,.37-2.812h2.1Zm-5.178,5.237a16.134,16.134,0,0,1-14.905,9.959,6.092,6.092,0,0,1,0-12.183,3.949,3.949,0,0,0,3.95-3.95,6.092,6.092,0,0,1,12.183,0,16.054,16.054,0,0,1-1.228,6.174Z" fill="#fff"/>
    <path id="Path_298" data-name="Path 298" d="M126.458,112.467a3.948,3.948,0,0,0-3.95,3.95,6.1,6.1,0,0,1-6.092,6.092,3.95,3.95,0,1,0,0,7.9,13.992,13.992,0,0,0,13.992-13.992A3.948,3.948,0,0,0,126.458,112.467Zm-10.042,16.067a2.075,2.075,0,0,1,0-4.15,7.976,7.976,0,0,0,7.967-7.967,2.075,2.075,0,1,1,4.15,0A12.13,12.13,0,0,1,116.416,128.534Z" transform="translate(-105.437 -105.438)" fill="#fff"/>
  </g>
</svg>
