<svg xmlns="http://www.w3.org/2000/svg" width="35.919" height="32" viewBox="0 0 35.919 32">
  <path id="Path_296" data-name="Path 296" d="M-738.175,86.965l-15.31-9.652a2.649,2.649,0,0,0-2.826,0l-15.311,9.652a2.649,2.649,0,0,0-1.236,2.241v17.05a2.649,2.649,0,0,0,2.649,2.649h30.621a2.649,2.649,0,0,0,2.649-2.649V89.206A2.649,2.649,0,0,0-738.175,86.965Zm-5.793,16.317a.89.89,0,0,1-.89.89h-20.079a.89.89,0,0,1-.89-.89V101.44a.89.89,0,0,1,.89-.89h20.079a.89.89,0,0,1,.89.89Zm0-4.882a.89.89,0,0,1-.89.89h-20.079a.89.89,0,0,1-.89-.89V96.559a.89.89,0,0,1,.89-.89h20.079a.89.89,0,0,1,.89.89Zm0-4.882a.89.89,0,0,1-.89.89h-20.079a.89.89,0,0,1-.89-.89V91.677a.89.89,0,0,1,.89-.89h20.079a.89.89,0,0,1,.89.89Z" transform="translate(772.858 -76.905)" fill="#fff"/>
</svg>
