<svg xmlns="http://www.w3.org/2000/svg" width="32.002" height="32" viewBox="0 0 32.002 32">
  <path id="XMLID_3_" d="M21.737,13.5a4.956,4.956,0,0,1,2.738.053,9.252,9.252,0,0,0,2.044.287,5.352,5.352,0,0,0,2.844-.831,5.62,5.62,0,0,0,2.6-4.126,6.608,6.608,0,0,0-2.076-5.493A8.251,8.251,0,0,0,24.007.962a8.482,8.482,0,0,0-6.032,2.509,12.3,12.3,0,0,0-3.361,8.205,2.944,2.944,0,0,1-1.126-1.4,4.659,4.659,0,0,1,.053-2.738A5.952,5.952,0,0,0,13,2.648,5.655,5.655,0,0,0,8.161.011,6.812,6.812,0,0,0,3.377,2.129a8.431,8.431,0,0,0,.086,11.909,12.486,12.486,0,0,0,8.2,3.374,2.938,2.938,0,0,1-1.393,1.114,4.929,4.929,0,0,1-2.739-.053,9.255,9.255,0,0,0-2.044-.287,5.351,5.351,0,0,0-2.844.831,5.621,5.621,0,0,0-2.6,4.127,6.609,6.609,0,0,0,2.076,5.493A8.251,8.251,0,0,0,8,31.06a8.482,8.482,0,0,0,6.032-2.509,12.3,12.3,0,0,0,3.361-8.205,2.948,2.948,0,0,1,1.126,1.4,4.658,4.658,0,0,1-.053,2.739,5.952,5.952,0,0,0,.544,4.888,5.654,5.654,0,0,0,4.835,2.637,6.812,6.812,0,0,0,4.785-2.118,8.432,8.432,0,0,0-.086-11.909,12.484,12.484,0,0,0-8.2-3.374A2.935,2.935,0,0,1,21.737,13.5Zm-4.37,3.88a1.978,1.978,0,0,1-2.731,0,1.931,1.931,0,1,1,2.731,0Z" transform="translate(0 -0.011)" fill="#fff"/>
</svg>
