<svg xmlns="http://www.w3.org/2000/svg" width="23.368" height="48.101" viewBox="0 0 23.368 48.101">
  <path id="Path_306" data-name="Path 306" d="M577.056,94.044l-.014-.012c-1.4-1.219-3.67-1.559-6.747-1.009-1.921.341-2.609-.071-2.774-.2,0,0,0-.007-.009-.01a1.355,1.355,0,0,1-.348-1.081V89.976h0v-.249a.619.619,0,0,1,.185-.492,5.2,5.2,0,0,0,2.123-4.425c0-.025,0-.05,0-.075a.829.829,0,0,0-.661-.781,1.523,1.523,0,0,1-1.161-1.228,1.482,1.482,0,0,1,.387-1.255.811.811,0,0,0,.118-.979,7.2,7.2,0,0,0-1.9-2.21,1.317,1.317,0,0,0-1.466,0,7.206,7.206,0,0,0-1.9,2.21.811.811,0,0,0,.118.979,1.482,1.482,0,0,1,.387,1.255,1.523,1.523,0,0,1-1.161,1.228.829.829,0,0,0-.661.781c0,.025,0,.05,0,.075a5.2,5.2,0,0,0,2.123,4.425.636.636,0,0,1,.207.492l0,.249v1.752a4.394,4.394,0,0,0,1.525,3.534c1.223,1.025,3.06,1.33,5.418.908,2.921-.518,3.87.079,4.091.275a1.038,1.038,0,0,1,.3.845.611.611,0,0,1-.023.154,1.278,1.278,0,0,1-.565.662c-.523.349-2.6,1.35-7.458-.441-4.145-1.529-7.378-1.6-9.612-.2a5.333,5.333,0,0,0-2.5,4.086,5.627,5.627,0,0,0,2.679,4.927,8.462,8.462,0,0,0,4.875,1.5.623.623,0,0,1,.61.477.611.611,0,0,1-.333.684,4.087,4.087,0,0,0-1.977,1.94,4.241,4.241,0,0,0,1.2,4.948,9.934,9.934,0,0,0,2.134,1.309c1.245.615,1.893,1.037,1.893,3.223,0,.341.114,1.98.2,2.7.136,1.086.363,2.905.9,2.905.431,0,.7-1.179.962-2.321l.2-.866c.215-.9.384-1.615.563-2.578.484-2.613-.652-4.622-3.378-5.97a6.73,6.73,0,0,1-1.425-.859,1.088,1.088,0,0,1-.384-1.081.611.611,0,0,1,.061-.129c.354-.563,1.658-.738,3.323-.445,3.131.554,5.494.214,7.025-1.01a4.744,4.744,0,0,0,1.757-3.543,4.482,4.482,0,0,0-2.024-3.844,4.824,4.824,0,0,0-.964-.494.611.611,0,0,1-.315-.871.635.635,0,0,1,.5-.309,7.09,7.09,0,0,0,3.259-1.078,4.211,4.211,0,0,0,.62-6.718ZM562.7,104.786h0a5.359,5.359,0,0,1-3.091-.927,2.934,2.934,0,0,1-1.337-1.874,1.812,1.812,0,0,1,1.013-1.813,4.081,4.081,0,0,1,2.2-.507,13.813,13.813,0,0,1,4.614,1,21.7,21.7,0,0,0,3.31.949.61.61,0,0,1-.005,1.2,13.687,13.687,0,0,0-3.332,1.14A7.794,7.794,0,0,1,562.7,104.786Zm10.032,2.492h0c0,.01,0,.022,0,.032a1.311,1.311,0,0,1-.5,1.093,3.615,3.615,0,0,1-2.3.577,12.669,12.669,0,0,1-2.175-.215,12.38,12.38,0,0,0-1.533-.179.61.61,0,0,1-.163-1.188,12.311,12.311,0,0,0,1.385-.562c3.009-1.437,4.319-.941,4.742-.661A1.287,1.287,0,0,1,572.734,107.278Z" transform="translate(-555.074 -78.058)" fill="#fff"/>
</svg>
