<svg xmlns="http://www.w3.org/2000/svg" width="156.079" height="71.062" viewBox="0 0 156.079 71.062">
  <g id="Group_1486" data-name="Group 1486" transform="translate(-881.229 -406.938)">
    <path id="Path_91" data-name="Path 91" d="M-50.512,0h11.319V-11.627h7.238v-9.625h-7.238V-54.285H-49.2L-78.771-20.02l1.925,8.393h26.334ZM-64.834-21.252l14.322-16.786v16.786ZM58.751,0H70.07V-11.627h7.238v-9.625H70.07V-54.285H60.06L30.492-20.02l1.925,8.393H58.751ZM44.429-21.252,58.751-38.038v16.786Z" transform="translate(960 478)" fill="#4b7bec"/>
    <circle id="Ellipse_26" data-name="Ellipse 26" cx="6" cy="6" r="6" transform="translate(970 417)" fill="#4b7bec"/>
    <path id="Path_92" data-name="Path 92" d="M319.82,424.4h0a8.219,8.219,0,0,0-6.471,3.143,6.492,6.492,0,0,1-5.086,2.529h-.318c-4.91,0-6.095-2.645-8.722-6.792a17.39,17.39,0,0,0-14.712-8.1h0A17.406,17.406,0,0,0,267.1,432.583h0a17.406,17.406,0,0,0,17.406,17.406h0a17.39,17.39,0,0,0,14.712-8.1c2.627-4.148,3.812-6.682,8.722-6.682h.318a6.492,6.492,0,0,1,5.086,2.529,8.219,8.219,0,0,0,6.471,3.143h0a8.237,8.237,0,0,0,8.237-8.237h0A8.237,8.237,0,0,0,319.82,424.4Z" transform="translate(713.713 907.852) rotate(-118)" fill="#4b7bec"/>
  </g>
</svg>
