<svg xmlns="http://www.w3.org/2000/svg" width="40.873" height="32" viewBox="0 0 40.873 32">
  <g id="solid" transform="translate(-48.013 -87.995)">
    <path id="Path_292" data-name="Path 292" d="M53.315,372.123a.78.78,0,0,1-.443.291l-4.484,1.071a.49.49,0,0,0,.114.966h2.826a6.937,6.937,0,0,0,4.867-1.978l-1.257-2.514Z" transform="translate(0 -254.456)" fill="#4b7bec"/>
    <path id="Path_293" data-name="Path 293" d="M144.176,92.923l-4.814-3.063a6.918,6.918,0,0,0-3.224-1.066c.083.12.163.244.237.372a.78.78,0,1,1-1.351.782,3.9,3.9,0,1,0-3.381,5.853.78.78,0,0,1,0,1.561A5.444,5.444,0,0,1,127.82,95.8q-.04,0-.08,0h-5.167a11.416,11.416,0,0,0-9.518,5.094l-.1.147a11.887,11.887,0,0,0-.757,11.883l2.942,5.885a2.134,2.134,0,0,0,1.919,1.186H129.3v-.333a1.229,1.229,0,0,0-1.228-1.228h-3.455a.78.78,0,0,1-.583-1.3l3.041-3.421a4.332,4.332,0,0,0-6.3-5.941l-1.067,1.067a.78.78,0,0,1-1.1-1.1l1.067-1.068a5.893,5.893,0,0,1,8.572,8.083l-1.886,2.122h1.717a2.778,2.778,0,0,1,.79.115l1.447-1.447a.78.78,0,0,1,.551-.229h3.122a.78.78,0,0,1,.74.534l1.383,4.149h3.34v-.576a.585.585,0,0,0-.4-.555l-1.407-.469a.78.78,0,0,1-.519-.587l-.78-3.9a.781.781,0,0,1,.015-.368l.872-3.051a11.446,11.446,0,0,0,.354-4.59l-.125-1a4.279,4.279,0,0,1,2.752-4.552l2.119-.795A6.714,6.714,0,0,0,144.733,98a3.271,3.271,0,0,0-.557-5.073Zm-12.823.536a1.561,1.561,0,1,1,1.561-1.561A1.561,1.561,0,0,1,131.353,93.459Zm7.314,1.171a1.171,1.171,0,1,1,1.171-1.171A1.171,1.171,0,0,1,138.667,94.629Z" transform="translate(-56.806)" fill="#4b7bec"/>
  </g>
</svg>
