<svg xmlns="http://www.w3.org/2000/svg" width="41.894" height="40" viewBox="0 0 41.894 40">
  <g id="Group_1416" data-name="Group 1416" transform="translate(-540 -1345)">
    <path id="Path_48" data-name="Path 48" d="M2743.385,147.818a23.286,23.286,0,0,0-9.02-10.124,29.627,29.627,0,0,0-3.536-1.969l-.207-.1,0-.27a7.611,7.611,0,0,0-4.582-6.978l-.477-.207,3.072-3.072a1.222,1.222,0,0,0-1.729-1.728l-3.873,3.873-3.837-3.837a1.222,1.222,0,0,0-1.729,1.728l3.026,3.026-.479.206a7.609,7.609,0,0,0-4.607,6.989c0,.006,0,.011,0,.017l0,.253-.207.1a29.626,29.626,0,0,0-3.536,1.969,23.287,23.287,0,0,0-9.019,10.124,7.634,7.634,0,0,0,10.445,9.762l.291-.144.169.277a11.091,11.091,0,0,0,18.92,0l.168-.277.291.144a7.638,7.638,0,0,0,10.445-9.762Zm-25.357-13.775a5.163,5.163,0,0,1,9.985,0l.16.606-.6-.176a11.9,11.9,0,0,0-3.267-.545h-2.567a11.9,11.9,0,0,0-3.267.545l-.6.176Zm10.042,16.665h-10.1l5.049-12.333Zm-13.565,2.017a5.157,5.157,0,0,1-1.375,1.92l-.016.013c-.017.013-.032.027-.048.04a5.191,5.191,0,0,1-8.152-5.944c2.23-5.385,7.952-9.394,12.174-11.191l.025-.01a1.2,1.2,0,0,0,.161-.066l.024-.011a15.656,15.656,0,0,1,3.273-1l.627-.105Zm16.078,3.391a8.645,8.645,0,0,1-15.125,0l-.119-.215.16-.186a7.677,7.677,0,0,0,1.266-2.058l.206-.5h12.1l.209.511a7.654,7.654,0,0,0,1.262,2.051l.16.186Zm7.736-.581a5.182,5.182,0,0,1-5.353-.844l-.007-.006-.025-.021-.014-.012a5.206,5.206,0,0,1-1.38-1.92l-6.7-16.358.626.1a15.632,15.632,0,0,1,3.281,1l.023.011a1.2,1.2,0,0,0,.146.06l.024.009c4.225,1.8,9.952,5.807,12.184,11.2A5.2,5.2,0,0,1,2738.318,155.534Z" transform="translate(-2162.074 1221.985)" fill="#4b7bec"/>
    <g id="Group_1415" data-name="Group 1415">
      <path id="Path_50" data-name="Path 50" d="M713.229,1408.028l-5.067,14.425h11.646l-5.639-14.425Z" transform="translate(-153 -49)" fill="#4b7bec"/>
    </g>
  </g>
</svg>
