<svg xmlns="http://www.w3.org/2000/svg" xmlns:xlink="http://www.w3.org/1999/xlink" width="433" height="1018" viewBox="0 0 433 1018">
  <defs>
    <clipPath id="clip-path">
      <rect id="Rectangle_117" data-name="Rectangle 117" width="433" height="1018" transform="translate(1487)" fill="#fff"/>
    </clipPath>
  </defs>
  <g id="Mask_Group_2" data-name="Mask Group 2" transform="translate(-1487)" clip-path="url(#clip-path)">
    <path id="SVGID" d="M656.916,542.136a82.782,82.782,0,0,0,82.8,82.713A84,84,0,0,0,772.5,618c9.221-3.926,17.471-8.836,27.662-9.955.986-.06,1.946-.21,2.934-.22.344-.008.567-.008.831-.013,37.484-.281,65.756,36.173,58.051,72.339a59.914,59.914,0,0,1-14.938,28.588c-14.415,11.875-33.092,15.979-51.415,14.227-19.071-1.823-36.168-12.088-55.545-12-33.624.153-64.451,19.078-77.687,50.535A82.764,82.764,0,0,0,738.67,876.281c34.553,0,66.291-22.245,77.965-54.792a87.912,87.912,0,0,0,4.821-27.916c.183-9.2-1.788-18.392-.695-27.561,1.793-15.077,8.578-29.814,22.228-37.555,11.92-6.76,25.9-8.776,39.417-7.532,10.532.97,20.447,4.96,30.549,7.8,36.725,10.315,75.373-13.1,83.845-50.159a68.46,68.46,0,0,0,1.708-15.2c0-34.719-29.788-67.94-65.308-67.454q-1.362.019-2.716.1c-19.622,1.2-37.76,11.995-57.827,9.222a59.8,59.8,0,0,1-42.737-28.368q-1.357-2.272-2.514-4.656c-7.959-18.682-3.078-39.32-9.875-58.175a82.76,82.76,0,0,0-160.617,28.1" transform="translate(2411.865 1823.07) rotate(-172)" fill="#f2f3f5" opacity="0.6"/>
    <circle id="Ellipse_19" data-name="Ellipse 19" cx="40" cy="40" r="40" transform="translate(1540 -33)" fill="#f2f3f5" opacity="0.6"/>
  </g>
</svg>
