<svg xmlns="http://www.w3.org/2000/svg" width="13.146" height="16" viewBox="0 0 13.146 16">
  <g id="Group_1464" data-name="Group 1464" transform="translate(-336 -2845)">
    <path id="Path_81" data-name="Path 81" d="M1283.289,342.033a2.008,2.008,0,1,1-2.008-2.008,2.008,2.008,0,0,1,2.008,2.008" transform="translate(-934.143 2504.975)" fill="#4b7bec"/>
    <path id="Path_82" data-name="Path 82" d="M1282.624,420.118a2.068,2.068,0,1,1-2.068-2.068,2.068,2.068,0,0,1,2.068,2.068" transform="translate(-933.479 2438.814)" fill="#4b7bec"/>
    <path id="Path_83" data-name="Path 83" d="M1229.771,345.27a11.024,11.024,0,0,1-2.219.354,2.3,2.3,0,0,1-1.64-1.089q-.052-.087-.1-.179c-.306-.717-.118-1.509-.379-2.233a3.18,3.18,0,1,0-1.728,3.99,3.747,3.747,0,0,1,1.062-.382c.038,0,.075-.008.113-.008h.032a2.3,2.3,0,0,1,1.654,3.873,2.669,2.669,0,0,1-1.973.546,21.363,21.363,0,0,0-2.131-.46,3.166,3.166,0,0,0-3.229,3.17,3.177,3.177,0,0,0,6.166,1.072,3.372,3.372,0,0,0,.185-1.071c.007-.353-.069-.706-.027-1.058a1.848,1.848,0,0,1,.853-1.441,2.585,2.585,0,0,1,1.513-.289,6.65,6.65,0,0,1,1.172.3,2.6,2.6,0,1,0,.777-5.1l-.1,0" transform="translate(-883.236 2504.975)" fill="#4b7bec"/>
  </g>
</svg>
