<svg xmlns="http://www.w3.org/2000/svg" width="337.861" height="330.976" viewBox="0 0 337.861 330.976">
  <path id="Path_86" data-name="Path 86" d="M1391.13,425.6c-12.287.752-23.643,7.51-36.206,5.776a37.444,37.444,0,0,1-26.76-17.764q-.851-1.421-1.575-2.913c-4.984-11.7-1.928-24.621-6.182-36.427a51.891,51.891,0,1,0-28.194,65.095c5.773-2.459,10.939-5.532,17.319-6.235.618-.035,1.22-.129,1.838-.134.214-.008.356-.008.52-.01,23.473-.176,41.17,22.648,36.348,45.295a37.514,37.514,0,0,1-9.352,17.9c-9.027,7.435-20.719,10.006-32.193,8.907-11.941-1.141-22.646-7.569-34.778-7.512-21.053.1-40.355,11.946-48.644,31.642a51.829,51.829,0,1,0,96.576,37.559,55.012,55.012,0,0,0,3.017-17.481c.114-5.758-1.12-11.514-.434-17.255,1.123-9.44,5.368-18.667,13.915-23.514,7.465-4.232,16.219-5.493,24.683-4.716,6.592.608,12.8,3.1,19.128,4.883,22.993,6.458,47.192-8.2,52.5-31.406a42.76,42.76,0,0,0,1.069-9.514c0-21.741-18.652-42.543-40.891-42.238-.568.007-1.133.03-1.7.065" transform="translate(1369.4 -569.25) rotate(129)" fill="#f3f4f5"/>
</svg>
