<svg xmlns="http://www.w3.org/2000/svg" xmlns:xlink="http://www.w3.org/1999/xlink" width="368" height="424" viewBox="0 0 368 424">
  <defs>
    <clipPath id="clip-path">
      <rect id="Rectangle_139" data-name="Rectangle 139" width="368" height="424" transform="translate(1552 1221)" fill="#fff" stroke="#707070" stroke-width="1"/>
    </clipPath>
  </defs>
  <g id="Mask_Group_4" data-name="Mask Group 4" transform="translate(-1552 -1221)" clip-path="url(#clip-path)">
    <path id="Path_88" data-name="Path 88" d="M1739.483,599.023c-37.187,2.275-71.558,22.728-109.579,17.48a113.328,113.328,0,0,1-80.992-53.763q-2.577-4.3-4.766-8.816c-15.084-35.41-5.835-74.516-18.711-110.25a156.833,156.833,0,0,0-304.373,53.245c0,86.5,70.248,156.752,156.9,156.752a159.142,159.142,0,0,0,62.142-12.983c17.472-7.441,33.107-16.744,52.418-18.87,1.87-.1,3.694-.39,5.563-.4.647-.023,1.076-.023,1.573-.03,71.041-.533,124.6,68.547,110.009,137.087a113.538,113.538,0,0,1-28.306,54.175c-27.32,22.5-62.707,30.283-97.434,26.957-36.14-3.454-68.539-22.909-105.258-22.737-63.718.293-122.138,36.155-147.225,95.766a156.839,156.839,0,0,0,144.546,217.505c65.475,0,125.622-42.147,147.746-103.831,6.076-16.947,8.777-34.953,9.132-52.906.345-17.428-3.389-34.848-1.314-52.223,3.4-28.57,16.247-56.5,42.115-71.168,22.594-12.809,49.087-16.624,74.706-14.275,19.951,1.84,38.745,9.394,57.892,14.778,69.591,19.546,142.831-24.824,158.885-95.053a129.407,129.407,0,0,0,3.237-28.8c0-65.8-56.452-128.76-123.759-127.836-1.719.022-3.43.09-5.146.2" transform="matrix(0.326, 0.946, -0.946, 0.326, 2183.219, -238.139)" fill="#f3f4f5"/>
  </g>
</svg>
