<svg xmlns="http://www.w3.org/2000/svg" width="1132.556" height="1172.361" viewBox="0 0 1132.556 1172.361">
  <path id="Path_90" data-name="Path 90" d="M1817.452,637.839c-42.76,2.616-82.282,26.134-126,20.1a130.31,130.31,0,0,1-93.13-61.82q-2.964-4.946-5.481-10.137c-17.345-40.717-6.71-85.684-21.514-126.773a180.338,180.338,0,0,0-349.99,61.225c0,99.464,80.776,180.245,180.415,180.245a182.985,182.985,0,0,0,71.456-14.929c20.091-8.557,38.069-19.253,60.274-21.7,2.15-.12,4.248-.449,6.4-.465.745-.027,1.238-.027,1.809-.035,81.688-.614,143.278,78.82,126.5,157.632a130.551,130.551,0,0,1-32.548,62.294c-31.414,25.877-72.1,34.822-112.036,31-41.557-3.972-78.811-26.342-121.033-26.144-73.267.337-140.442,41.573-169.289,110.119a180.594,180.594,0,0,0-14.038,69.867c0,99.629,80.789,180.236,180.247,180.236,75.287,0,144.448-48.463,169.888-119.392,6.987-19.487,10.092-40.191,10.5-60.835.4-20.04-3.9-40.071-1.511-60.05,3.908-32.852,18.682-64.963,48.425-81.834,25.98-14.729,56.444-19.116,85.9-16.414,22.941,2.116,44.552,10.8,66.568,16.993,80.021,22.475,164.238-28.545,182.7-109.3a148.78,148.78,0,0,0,3.721-33.111c0-75.66-64.911-148.057-142.306-146.995-1.977.026-3.944.1-5.917.225" transform="matrix(-0.819, -0.574, 0.574, -0.819, 1415.157, 2150.219)" fill="#f3f4f5"/>
</svg>
