<svg xmlns="http://www.w3.org/2000/svg" width="141.712" height="40" viewBox="0 0 141.712 40">
  <g id="Group_1454" data-name="Group 1454" transform="translate(1041 -724)">
    <g id="Group_1453" data-name="Group 1453" transform="translate(-1041 724)">
      <path id="Path_52" data-name="Path 52" d="M1340.19,408.67h1.979a2.646,2.646,0,0,1,2.821,2.639v.015a2.657,2.657,0,0,1-2.821,2.654h-1.979Zm.932.849v3.609h1.047a1.73,1.73,0,0,0,1.843-1.79v-.015a1.742,1.742,0,0,0-1.843-1.8Z" transform="translate(-1294.212 -382.576)" fill="#0f1c2a"/>
      <path id="Path_53" data-name="Path 53" d="M1355.787,408.67h3.936v.834h-3v1.38h2.661v.842h-2.661v1.418h3.04v.834h-3.973Z" transform="translate(-1303.88 -382.576)" fill="#0f1c2a"/>
      <path id="Path_54" data-name="Path 54" d="M1368.631,413.288l3.139-3.791h-3.033v-.826h4.254v.69l-3.14,3.791h3.14v.826h-4.36Z" transform="translate(-1311.842 -382.576)" fill="#0f1c2a"/>
      <path id="Path_55" data-name="Path 55" d="M1383.271,405.279h.97v.849h-.97Zm.008,1.289h.932v5.308h-.932Z" transform="translate(-1320.916 -380.474)" fill="#0f1c2a"/>
      <path id="Path_56" data-name="Path 56" d="M1389.474,408.67h.864l2.844,3.67v-3.67h.917v5.308h-.781l-2.927-3.776v3.776h-.917Z" transform="translate(-1324.761 -382.576)" fill="#0f1c2a"/>
      <path id="Path_57" data-name="Path 57" d="M1405.23,408.67h3.951v.849h-3.018v1.448h2.677v.849h-2.677v2.161h-.932Z" transform="translate(-1334.528 -382.576)" fill="#0f1c2a"/>
      <path id="Path_58" data-name="Path 58" d="M1418.314,408.67h3.936v.834h-3v1.38h2.661v.842h-2.661v1.418h3.04v.834h-3.973Z" transform="translate(-1342.638 -382.576)" fill="#0f1c2a"/>
      <path id="Path_59" data-name="Path 59" d="M1431.677,408.67h.933v2.669l2.517-2.669h1.16l-2.214,2.282,2.313,3.025h-1.137l-1.812-2.388-.826.849v1.539h-.933Z" transform="translate(-1350.922 -382.576)" fill="#0f1c2a"/>
      <path id="Path_60" data-name="Path 60" d="M1445.02,413.081l.561-.667a2.425,2.425,0,0,0,1.676.69c.576,0,.94-.273.94-.667v-.015c0-.372-.213-.591-1.2-.812-1.13-.265-1.767-.614-1.767-1.585v-.015a1.624,1.624,0,0,1,1.813-1.539,2.943,2.943,0,0,1,1.926.667l-.5.706a2.429,2.429,0,0,0-1.441-.546c-.546,0-.864.273-.864.629v.015c0,.409.242.591,1.266.834,1.115.288,1.7.667,1.7,1.554v.015c0,1-.781,1.585-1.9,1.585a3.219,3.219,0,0,1-2.214-.849" transform="translate(-1359.193 -382.453)" fill="#0f1c2a"/>
      <path id="Path_61" data-name="Path 61" d="M1458.842,405.279h.971v.849h-.971Zm.008,1.289h.932v5.308h-.932Z" transform="translate(-1367.76 -380.474)" fill="#0f1c2a"/>
      <path id="Path_62" data-name="Path 62" d="M1465.716,411.885l-2.108-3.215h1.107l1.478,2.343,1.5-2.343h1.069l-2.108,3.192v2.115h-.94Z" transform="translate(-1370.715 -382.576)" fill="#0f1c2a"/>
      <path id="Path_63" data-name="Path 63" d="M1478.27,408.571h.865l2.335,5.345h-.986l-.538-1.281h-2.51l-.546,1.281h-.955Zm1.335,3.238-.917-2.123-.91,2.123Z" transform="translate(-1378.356 -382.515)" fill="#0f1c2a"/>
      <path id="Path_64" data-name="Path 64" d="M1498.871,408.67h.993l1.615,2.51,1.615-2.51h.994v5.308h-.933v-3.807l-1.676,2.5h-.03l-1.661-2.487v3.791h-.917Z" transform="translate(-1392.573 -382.576)" fill="#0f1c2a"/>
      <path id="Path_65" data-name="Path 65" d="M1515.8,409.424a2.877,2.877,0,0,1,2.244-.993,2.6,2.6,0,0,1,2.669,2.73v.023a2.625,2.625,0,0,1-2.608,2.737,2.555,2.555,0,0,1-2.541-2.829c0-.144,0-.212.007-.333h4.133a1.62,1.62,0,0,0-1.661-1.464,2.136,2.136,0,0,0-1.638.736Zm3.905,2.138h-3.147a1.534,1.534,0,0,0,1.547,1.509,1.611,1.611,0,0,0,1.6-1.509" transform="translate(-1402.921 -382.428)" fill="#0f1c2a"/>
      <path id="Path_66" data-name="Path 66" d="M1532.079,408.67h2.366a2.139,2.139,0,0,1,1.532.531,1.617,1.617,0,0,1,.44,1.145v.015a1.593,1.593,0,0,1-1.259,1.607l1.433,2.009h-1.107l-1.3-1.85h-1.167v1.85h-.933Zm2.3,2.631c.667,0,1.092-.341,1.092-.887V410.4c0-.576-.4-.88-1.1-.88h-1.357V411.3Z" transform="translate(-1413.158 -382.576)" fill="#0f1c2a"/>
      <path id="Path_67" data-name="Path 67" d="M1546.5,408.67h.933v2.669l2.517-2.669h1.16l-2.214,2.282,2.313,3.025h-1.137l-1.812-2.388-.826.849v1.539h-.933Z" transform="translate(-1422.097 -382.576)" fill="#0f1c2a"/>
      <path id="Path_68" data-name="Path 68" d="M1559.8,409.424a2.876,2.876,0,0,1,2.244-.993,2.6,2.6,0,0,1,2.669,2.73v.023a2.625,2.625,0,0,1-2.608,2.737,2.555,2.555,0,0,1-2.54-2.829c0-.144,0-.212.008-.333h4.132a1.62,1.62,0,0,0-1.66-1.464,2.136,2.136,0,0,0-1.638.736Zm3.9,2.138h-3.147a1.534,1.534,0,0,0,1.547,1.509,1.611,1.611,0,0,0,1.6-1.509" transform="translate(-1430.194 -382.428)" fill="#0f1c2a"/>
      <path id="Path_69" data-name="Path 69" d="M1574.841,413.288l3.14-3.791h-3.033v-.826h4.254v.69l-3.139,3.791h3.139v.826h-4.36Z" transform="translate(-1439.665 -382.576)" fill="#0f1c2a"/>
      <path id="Path_70" data-name="Path 70" d="M1589.482,405.279h.97v.849h-.97Zm.008,1.289h.933v5.308h-.933Z" transform="translate(-1448.74 -380.474)" fill="#0f1c2a"/>
      <path id="Path_71" data-name="Path 71" d="M1340.19,362.656h6.22a4.756,4.756,0,0,1,3.5,1.186,3.1,3.1,0,0,1,.918,2.277v.038a3.094,3.094,0,0,1-1.761,2.89,3.29,3.29,0,0,1,2.507,3.292v.038c0,2.45-1.99,3.675-5.014,3.675h-6.373Zm7.712,3.961c0-.9-.689-1.378-1.933-1.378h-2.909v2.832h2.718c1.3,0,2.125-.421,2.125-1.416Zm.746,5.358c0-.9-.651-1.454-2.182-1.454h-3.406v2.947h3.5c1.3,0,2.086-.459,2.086-1.454Z" transform="translate(-1294.212 -354.053)" fill="#0f1c2a"/>
      <path id="Path_72" data-name="Path 72" d="M1379.257,362.4h2.717l5.741,13.492h-3.081l-1.225-3h-5.665l-1.225,3h-3Zm3.1,7.885-1.78-4.344-1.78,4.344Z" transform="translate(-1314.869 -353.896)" fill="#0f1c2a"/>
      <path id="Path_73" data-name="Path 73" d="M1416.307,362.655h2.947v5.856l5.4-5.856h3.617l-5.473,5.684,5.7,7.712h-3.541l-4.153-5.7-1.551,1.608v4.1h-2.947Z" transform="translate(-1341.395 -354.053)" fill="#0f1c2a"/>
      <path id="Path_74" data-name="Path 74" d="M1451.748,370.31v-7.655h2.947v7.579c0,2.2,1.072,3.311,2.89,3.311s2.89-1.072,2.89-3.215v-7.674h2.947v7.559c0,4.057-2.277,6.048-5.875,6.048s-5.8-1.99-5.8-5.952" transform="translate(-1363.363 -354.053)" fill="#0f1c2a"/>
      <path id="Path_75" data-name="Path 75" d="M1490.362,362.655h5.225c4.21,0,7.119,2.89,7.119,6.66v.038c0,3.77-2.909,6.7-7.119,6.7h-5.225Zm2.947,2.66v8.076h2.277a3.827,3.827,0,0,0,4.038-4v-.038a3.858,3.858,0,0,0-4.038-4.038Z" transform="translate(-1387.299 -354.053)" fill="#0f1c2a"/>
      <path id="Path_76" data-name="Path 76" d="M1529.729,362.655h10.1v2.622h-7.177v2.718h6.315v2.622h-6.315v2.813h7.272v2.622h-10.2Z" transform="translate(-1411.701 -354.053)" fill="#0f1c2a"/>
      <path id="Path_77" data-name="Path 77" d="M1562.4,373.812l7.368-8.573h-7.138v-2.584h10.927v2.239l-7.368,8.574h7.368v2.583H1562.4Z" transform="translate(-1431.954 -354.053)" fill="#0f1c2a"/>
      <path id="Path_78" data-name="Path 78" d="M1289.314,345.046a5.021,5.021,0,1,1-5.021-5.021,5.021,5.021,0,0,1,5.021,5.021" transform="translate(-1256.45 -340.025)" fill="#4b7bec"/>
      <path id="Path_79" data-name="Path 79" d="M1288.828,423.22a5.17,5.17,0,1,1-5.17-5.17,5.17,5.17,0,0,1,5.17,5.17" transform="translate(-1255.964 -388.39)" fill="#4b7bec"/>
      <path id="Path_80" data-name="Path 80" d="M1245.574,353.137c-1.883.115-3.623,1.151-5.547.885a5.737,5.737,0,0,1-4.1-2.722q-.131-.218-.241-.446c-.764-1.793-.3-3.772-.947-5.581a7.951,7.951,0,1,0-4.32,9.974,9.365,9.365,0,0,1,2.654-.955c.095-.005.187-.02.282-.021l.08,0a5.748,5.748,0,0,1,4.136,9.683,6.674,6.674,0,0,1-4.933,1.365c-1.83-.175-3.47-1.16-5.329-1.151a7.916,7.916,0,0,0-8.071,7.924,7.942,7.942,0,0,0,15.415,2.679,8.428,8.428,0,0,0,.462-2.678c.017-.882-.172-1.764-.067-2.644a4.62,4.62,0,0,1,2.132-3.6,6.462,6.462,0,0,1,3.782-.723,16.621,16.621,0,0,1,2.931.748,6.489,6.489,0,1,0,1.942-12.742c-.087,0-.174,0-.26.01" transform="translate(-1219.236 -340.025)" fill="#4b7bec"/>
    </g>
  </g>
</svg>
