<svg xmlns="http://www.w3.org/2000/svg" width="122.714" height="30" viewBox="0 0 122.714 30">
  <g id="paypal" transform="translate(0.011 -8.1)" opacity="0.4">
    <path id="Path_13" data-name="Path 13" d="M152.054,20.718c-.982-1.1-2.7-1.718-4.969-1.718h-6.81a.929.929,0,0,0-.92.8l-2.761,17.423a.554.554,0,0,0,.552.675h3.5a.719.719,0,0,0,.675-.552l.8-4.908a.98.98,0,0,1,.92-.8h2.147q6.718,0,7.73-6.442A5.445,5.445,0,0,0,152.054,20.718Zm-4.172,4.663c-.368,2.454-2.209,2.454-4.049,2.454H142.79l.736-4.54a.652.652,0,0,1,.552-.491h.491c1.227,0,2.393,0,3.006.675A2.56,2.56,0,0,1,147.882,25.38Z" transform="translate(-52.795 -4.213)" fill="#8c98a4"/>
    <path id="Path_14" data-name="Path 14" d="M177.115,29.145h-3.252a.537.537,0,0,0-.552.491l-.123.92-.245-.307c-.675-1.043-2.27-1.35-3.865-1.35a7.385,7.385,0,0,0-7.239,6.564,5.978,5.978,0,0,0,1.227,4.969,5.073,5.073,0,0,0,4.11,1.656,6.2,6.2,0,0,0,4.479-1.84l-.123.92a.554.554,0,0,0,.552.675h2.945a.929.929,0,0,0,.92-.8l1.779-11.1C177.729,29.452,177.483,29.145,177.115,29.145Zm-4.54,6.319a3.651,3.651,0,0,1-3.681,3.129,2.908,2.908,0,0,1-2.209-.859,2.612,2.612,0,0,1-.491-2.27,3.635,3.635,0,0,1,3.62-3.129,2.769,2.769,0,0,1,2.147.859A2.43,2.43,0,0,1,172.575,35.464Z" transform="translate(-62.518 -8.039)" fill="#8c98a4"/>
    <path id="Path_15" data-name="Path 15" d="M195.036,19h-3.129a.537.537,0,0,0-.552.491l-2.761,17.73a.554.554,0,0,0,.552.675h2.822a.88.88,0,0,0,.92-.8l2.7-17.423A.586.586,0,0,0,195.036,19Z" transform="translate(-72.893 -4.213)" fill="#8c98a4"/>
    <path id="Path_16" data-name="Path 16" d="M73.154,20.718c-.982-1.1-2.7-1.718-4.969-1.718h-6.81a.929.929,0,0,0-.92.8L57.694,37.221a.554.554,0,0,0,.552.675H61.5a.88.88,0,0,0,.92-.8l.736-4.724a.98.98,0,0,1,.92-.8h2.147q6.718,0,7.73-6.442A5.144,5.144,0,0,0,73.154,20.718ZM68.982,25.38c-.368,2.454-2.209,2.454-4.049,2.454H63.89l.736-4.54a.652.652,0,0,1,.552-.491h.491c1.227,0,2.393,0,3.006.675A2.56,2.56,0,0,1,68.982,25.38Z" transform="translate(-22.3 -4.213)" fill="#8c98a4"/>
    <path id="Path_17" data-name="Path 17" d="M98.215,29.145H94.964a.537.537,0,0,0-.552.491l-.123.92-.245-.307c-.675-1.043-2.27-1.35-3.865-1.35a7.385,7.385,0,0,0-7.239,6.564,5.978,5.978,0,0,0,1.227,4.969,5.073,5.073,0,0,0,4.11,1.656,6.2,6.2,0,0,0,4.479-1.84l-.123.92a.554.554,0,0,0,.552.675h2.945a.929.929,0,0,0,.92-.8l1.779-11.1C98.829,29.452,98.522,29.145,98.215,29.145Zm-4.54,6.319a3.651,3.651,0,0,1-3.681,3.129,2.908,2.908,0,0,1-2.209-.859,2.612,2.612,0,0,1-.491-2.27,3.634,3.634,0,0,1,3.62-3.129,2.769,2.769,0,0,1,2.147.859A2.6,2.6,0,0,1,93.675,35.464Z" transform="translate(-32.023 -8.039)" fill="#8c98a4"/>
    <path id="Path_18" data-name="Path 18" d="M126.536,29.3h-3.252a1.049,1.049,0,0,0-.8.429l-4.479,6.626-1.963-6.38a.922.922,0,0,0-.92-.675h-3.19a.575.575,0,0,0-.552.736L115,40.588l-3.374,4.785a.6.6,0,0,0,.491.92h3.252a.894.894,0,0,0,.8-.429l10.859-15.706A.569.569,0,0,0,126.536,29.3Z" transform="translate(-43.043 -8.194)" fill="#8c98a4"/>
    <path id="Path_19" data-name="Path 19" d="M28.093,21.543a4.661,4.661,0,0,0-1.35-1.043h0a1.791,1.791,0,0,1-.123.552c-.061.184-.061.368-.123.491-1.166,5.215-4.479,7.423-8.773,7.914a4.05,4.05,0,0,1-.859.061H13.124a1.271,1.271,0,0,0-1.288,1.1l-1.227,7.853-.184,1.043L10,42.034a.68.68,0,0,0,.675.8h4.847a1.238,1.238,0,0,0,1.166-.982l.061-.245.92-5.767.061-.307a1.14,1.14,0,0,1,1.166-.982h.736c4.724,0,8.344-1.9,9.448-7.423C29.5,24.794,29.259,22.893,28.093,21.543Z" transform="translate(-3.864 -4.793)" fill="#909da5"/>
    <path id="Path_20" data-name="Path 20" d="M7.971,25.891l.061-.307,1.534-9.816a1.086,1.086,0,0,1,.675-.859,1.444,1.444,0,0,1,.491-.123h7.3a14.576,14.576,0,0,1,2.393.184c.184.061.429.061.613.123a1.791,1.791,0,0,0,.552.123c.061,0,.123.061.184.061H21.9a4.749,4.749,0,0,1,.982.429h0c.368-2.331,0-3.926-1.288-5.337-1.35-1.6-3.865-2.27-7.055-2.27H5.211A1.271,1.271,0,0,0,3.922,9.2L0,33.806a.808.808,0,0,0,.8.92H6.56l.184-1.043Z" fill="#8c98a4"/>
    <path id="Path_21" data-name="Path 21" d="M27.908,19.92a4.749,4.749,0,0,0-.982-.429H26.8c-.061,0-.123-.061-.184-.061a1.791,1.791,0,0,0-.552-.123c-.184-.061-.429-.061-.613-.123A14.576,14.576,0,0,0,23.061,19H15.7a1.156,1.156,0,0,0-.491.123,1.354,1.354,0,0,0-.675.859L13,29.8V30.1A1.309,1.309,0,0,1,14.288,29h3.742c.307,0,.613-.061.859-.061,4.294-.491,7.607-2.7,8.834-7.853.061-.184.061-.307.123-.491,0-.307.061-.491.061-.675Z" transform="translate(-5.029 -4.213)" fill="#8c98a4"/>
  </g>
</svg>
