<svg xmlns="http://www.w3.org/2000/svg" width="104.869" height="30" viewBox="0 0 104.869 30">
  <g id="shopify" transform="translate(-0.8 -4.3)" opacity="0.4">
    <path id="Path_22" data-name="Path 22" d="M23.287,10.079c0-.158-.158-.21-.263-.263-.105,0-2.364-.158-2.364-.158L18.926,7.925c-.158-.158-.525-.105-.63-.105,0,0-.368.105-.893.263-.525-1.524-1.419-2.89-3.047-2.89H14.25A2.15,2.15,0,0,0,12.726,4.3c-3.783,0-5.569,4.729-6.147,7.145-1.471.473-2.522.788-2.627.788-.788.263-.841.263-.946,1.051C2.9,13.81.8,30.412.8,30.412l16.655,3.1,9.037-1.891S23.339,10.237,23.287,10.079ZM16.509,8.4c-.42.158-.893.263-1.419.42V8.5a6.527,6.527,0,0,0-.368-2.259C15.616,6.3,16.194,7.295,16.509,8.4ZM13.777,6.454a7.527,7.527,0,0,1,.368,2.522v.158c-.893.263-1.891.578-2.89.893C11.781,7.873,12.832,6.822,13.777,6.454ZM12.621,5.4a.847.847,0,0,1,.473.158c-1.208.578-2.522,2-3.047,4.886-.788.263-1.576.473-2.312.683C8.418,8.923,9.942,5.4,12.621,5.4Z" fill="#8c98a4"/>
    <path id="Path_23" data-name="Path 23" d="M38.022,13c-.105,0-2.364-.158-2.364-.158l-1.734-1.734A.4.4,0,0,0,33.661,11L32.4,36.744,41.489,34.8s-3.152-21.436-3.2-21.594C38.284,13.049,38.127,13,38.022,13Z" transform="translate(-14.998 -3.18)" fill="#8c98a4"/>
    <path id="Path_24" data-name="Path 24" d="M18.015,23.873l-1.1,3.31a5.188,5.188,0,0,0-2.154-.525c-1.734,0-1.839,1.1-1.839,1.366,0,1.524,3.94,2.1,3.94,5.622,0,2.785-1.786,4.571-4.151,4.571A5.775,5.775,0,0,1,8.4,36.43l.736-2.522a5.538,5.538,0,0,0,2.785,1.313,1.1,1.1,0,0,0,1.156-1.156c0-2-3.257-2.049-3.257-5.306,0-2.732,1.944-5.359,5.937-5.359A4.447,4.447,0,0,1,18.015,23.873Z" transform="translate(-3.607 -9.065)" fill="#fff"/>
    <path id="Path_25" data-name="Path 25" d="M64.01,26.323c-.893-.473-1.366-.893-1.366-1.471,0-.736.63-1.208,1.681-1.208a6.081,6.081,0,0,1,2.207.473l.841-2.522s-.736-.578-2.995-.578c-3.1,0-5.254,1.786-5.254,4.256a3.86,3.86,0,0,0,2.364,3.257c1.1.63,1.471,1.051,1.471,1.681,0,.683-.525,1.208-1.576,1.208a6.547,6.547,0,0,1-2.89-.788L57.6,33.153a6.671,6.671,0,0,0,3.52.893c3.2,0,5.464-1.576,5.464-4.413-.053-1.419-1.208-2.469-2.574-3.31Zm12.715-5.254a4.856,4.856,0,0,0-3.783,1.891h-.053l1.366-7.2H70.682L67.215,33.941h3.573L72,27.742c.473-2.364,1.681-3.783,2.785-3.783.788,0,1.1.525,1.1,1.313a8.019,8.019,0,0,1-.158,1.576L74.36,33.941h3.625L79.4,26.586a12.983,12.983,0,0,0,.263-2.312c-.053-2-1.1-3.2-2.942-3.2Zm10.928,0c-4.256,0-7.093,3.888-7.093,8.144A4.63,4.63,0,0,0,85.446,34.2c4.2,0,7.04-3.783,7.04-8.144,0-2.627-1.524-4.991-4.834-4.991Zm-1.734,10.35c-1.208,0-1.734-1.051-1.734-2.312,0-2.049,1.051-5.359,2.995-5.359,1.261,0,1.681,1.1,1.681,2.154C88.808,28.057,87.758,31.419,85.919,31.419Zm15.657-10.35a4.89,4.89,0,0,0-3.783,2.1H97.74l.21-1.891H94.8c-.158,1.313-.42,3.257-.736,4.729L91.646,38.985h3.52l1-5.254h.053a4.134,4.134,0,0,0,2.1.473c4.151,0,6.883-4.256,6.883-8.616,0-2.417-1.051-4.518-3.625-4.518ZM98.16,31.419a2.175,2.175,0,0,1-1.471-.525l.578-3.31c.42-2.207,1.576-3.678,2.785-3.678,1.1,0,1.419,1,1.419,1.944C101.523,28.215,100.157,31.419,98.16,31.419ZM110.3,15.92a2.019,2.019,0,0,0-2.049,2.049,1.657,1.657,0,0,0,1.681,1.786h.053a2.027,2.027,0,0,0,2.1-2.049A1.74,1.74,0,0,0,110.3,15.92Zm-4.991,17.916h3.573L111.3,21.227h-3.573m12.609.105h-2.469l.105-.578c.21-1.208.946-2.312,2.1-2.312a4.488,4.488,0,0,1,1.156.158l.683-2.785a4.714,4.714,0,0,0-1.944-.315,5.176,5.176,0,0,0-3.468,1.208,6.691,6.691,0,0,0-2.049,3.993l-.105.578h-1.681l-.525,2.68h1.681l-1.891,9.877H115.5l1.891-9.93h2.469l.473-2.574Zm8.511,0s-2.207,5.622-3.2,8.669h-.053c-.053-1-.893-8.669-.893-8.669h-3.73l2.154,11.559a.99.99,0,0,1-.053.578,6.276,6.276,0,0,1-1.944,2.154,8.826,8.826,0,0,1-2,1l1,2.995a7.849,7.849,0,0,0,3.468-1.944,25.032,25.032,0,0,0,4.676-7.04l4.361-9.3Z" transform="translate(-26.958 -5.316)" fill="#8c98a4"/>
  </g>
</svg>
