<svg xmlns="http://www.w3.org/2000/svg" width="151.899" height="30" viewBox="0 0 151.899 30">
  <g id="lenovo" transform="translate(-0.2 -12.7)" opacity="0.4">
    <path id="n_1_" d="M76.071,21.2a9.45,9.45,0,0,0-7.443,3.646h0V21.58H62.4V44.365h6.228V31.377a4.859,4.859,0,0,1,5.165-4.785,5.009,5.009,0,0,1,5.241,4.785V44.365h6.228V30.238C85.337,25,81.615,21.2,76.071,21.2Z" transform="translate(-14.959 -2.044)" fill="#8c98a4"/>
    <path id="v" d="M145.356,21.7l-5.62,15.494-5.7-15.494H126.9l9.418,22.785h6.835L152.495,21.7Z" transform="translate(-30.472 -2.165)" fill="#8c98a4"/>
    <path id="e_1_" d="M49.114,24.922A11.562,11.562,0,0,0,40.076,21.2C33.165,21.2,28,26.289,28,32.972c0,6.911,5.241,11.772,12.759,11.772,4.253,0,8.582-1.975,10.633-4.329l-3.949-3.038c-2.582,1.9-4.1,2.43-6.532,2.43A6.963,6.963,0,0,1,35.9,37.985l16.025-6.608A12.572,12.572,0,0,0,49.114,24.922ZM34.152,33.884a7.23,7.23,0,0,1,1.291-5.468,5.737,5.737,0,0,1,4.785-2.278,5.258,5.258,0,0,1,4.861,3.19Z" transform="translate(-6.686 -2.044)" fill="#8c98a4"/>
    <path id="l_1_" d="M6.58,12.7H.2V42.32H20.782V36.548H6.58Z" transform="translate(0 0)" fill="#8c98a4"/>
    <path id="o_4_" d="M171.7,21.2c-6.911,0-12.3,5.165-12.3,11.772,0,6.684,5.392,11.772,12.228,11.772,6.911,0,12.3-5.165,12.3-11.772A11.887,11.887,0,0,0,171.7,21.2Zm0,18.152a6.246,6.246,0,0,1-6.152-6.456c0-3.8,2.506-6.456,6-6.456A6.246,6.246,0,0,1,177.7,32.9C177.7,36.694,175.2,39.352,171.7,39.352Z" transform="translate(-38.289 -2.044)" fill="#8c98a4"/>
    <path id="o_3_" d="M108.2,21.2c-6.911,0-12.3,5.165-12.3,11.772,0,6.684,5.392,11.772,12.228,11.772,6.911,0,12.3-5.165,12.3-11.772C120.432,26.289,115.039,21.2,108.2,21.2Zm0,18.152a6.246,6.246,0,0,1-6.152-6.456c0-3.8,2.506-6.456,6-6.456A6.246,6.246,0,0,1,114.2,32.9C114.2,36.694,111.7,39.352,108.2,39.352Z" transform="translate(-23.016 -2.044)" fill="#8c98a4"/>
    <path id="t" d="M191.4,47.932h1.063v2.734h.608V47.932h.987V47.4H191.4Z" transform="translate(-45.985 -8.346)" fill="#8c98a4"/>
    <path id="m_1_" d="M198.458,47.4l-.987,1.519-.987-1.519H195.8v3.266h.608V48.311l1.063,1.595h.076l.987-1.595v2.354h.608V47.4Z" transform="translate(-47.043 -8.346)" fill="#8c98a4"/>
  </g>
</svg>
