<svg xmlns="http://www.w3.org/2000/svg" width="100.05" height="30" viewBox="0 0 100.05 30">
  <g id="spotify" transform="translate(0 -2.8)" opacity="0.4">
    <path id="Path_26" data-name="Path 26" d="M15,2.8a15,15,0,1,0,15,15,14.98,14.98,0,0,0-15-15Zm6.9,21.65a.91.91,0,0,1-1.3.3C17.1,22.6,12.65,22.1,7.4,23.3A.922.922,0,0,1,7,21.5c5.7-1.3,10.6-.75,14.55,1.65A.966.966,0,0,1,21.9,24.45Zm1.8-4.1a1.2,1.2,0,0,1-1.6.4A19.607,19.607,0,0,0,7.15,19a1.171,1.171,0,1,1-.65-2.25,21.886,21.886,0,0,1,16.85,2,1.143,1.143,0,0,1,.35,1.6Zm.2-4.25c-4.85-2.85-12.8-3.15-17.45-1.75A1.41,1.41,0,0,1,4.7,13.4a1.432,1.432,0,0,1,.95-1.75c5.3-1.6,14.1-1.3,19.65,2a1.4,1.4,0,0,1,.5,1.9,1.369,1.369,0,0,1-1.9.55Zm16.9.55c-2.6-.6-3.05-1.05-3.05-1.95,0-.85.8-1.45,2-1.45A5.965,5.965,0,0,1,43.3,14.6a.184.184,0,0,0,.15.05.175.175,0,0,0,.1-.05l1.25-1.8c.05-.05.05-.15-.05-.25a7.631,7.631,0,0,0-4.95-1.7c-2.8,0-4.75,1.7-4.75,4.1,0,2.55,1.7,3.5,4.6,4.2,2.5.55,2.9,1.05,2.9,1.9,0,.95-.85,1.55-2.2,1.55a6.033,6.033,0,0,1-4.15-1.7c0-.1-.05-.1-.1-.1a.175.175,0,0,0-.1.05l-1.4,1.7a.227.227,0,0,0,0,.25A8.4,8.4,0,0,0,40.3,25c3,0,4.95-1.65,4.95-4.2,0-2.2-1.25-3.4-4.45-4.15ZM52.1,14.1a4,4,0,0,0-3.25,1.55v-1.2a.16.16,0,0,0-.15-.15H46.4a.16.16,0,0,0-.15.15v13.2a.16.16,0,0,0,.15.15h2.25a.16.16,0,0,0,.15-.15V23.5A4.172,4.172,0,0,0,52.05,25c2.45,0,4.9-1.85,4.9-5.45S54.5,14.1,52.1,14.1Zm2.15,5.45a2.8,2.8,0,0,1-2.7,3.1,2.9,2.9,0,0,1-2.8-3.1,2.9,2.9,0,0,1,2.8-3.1,2.831,2.831,0,0,1,2.7,3.1Zm9-5.45a5.452,5.452,0,1,0,5.6,5.45,5.528,5.528,0,0,0-5.6-5.45Zm0,8.55a2.951,2.951,0,0,1-2.9-3.1,2.851,2.851,0,0,1,2.9-3.05,2.991,2.991,0,0,1,2.95,3.1A2.948,2.948,0,0,1,63.25,22.65ZM75.5,14.3H72.95V11.7a.16.16,0,0,0-.15-.15H70.5a.16.16,0,0,0-.15.15v2.6h-1.2a.16.16,0,0,0-.15.15v2a.16.16,0,0,0,.15.15h1.1v5.2c0,2.1,1.05,3.15,3.1,3.15a3.834,3.834,0,0,0,2.15-.55c.05-.05.1-.1.1-.15v-1.9c0-.05-.05-.1-.1-.15a.094.094,0,0,0-.15,0,3.383,3.383,0,0,1-1.35.35.959.959,0,0,1-1.1-1.1v-4.8h2.55a.16.16,0,0,0,.15-.15v-2c.05-.1,0-.2-.1-.2Zm8.9,0V14c0-.95.35-1.35,1.15-1.35a3.756,3.756,0,0,1,1.3.25H87a.184.184,0,0,0,.05-.15V10.8c0-.05-.05-.15-.1-.15a5.877,5.877,0,0,0-1.95-.3c-2.15,0-3.25,1.2-3.25,3.5v.5h-1.1a.16.16,0,0,0-.15.15v2a.16.16,0,0,0,.15.15h1.1V24.6a.16.16,0,0,0,.15.15h2.3a.16.16,0,0,0,.15-.15V16.65H86.5l3.3,7.95c-.4.85-.75,1-1.25,1a2.678,2.678,0,0,1-1.3-.35c-.05,0-.1-.05-.15,0a.108.108,0,0,0-.1.1l-.8,1.7c-.05.1,0,.2.05.2a4.788,4.788,0,0,0,2.5.65c1.7,0,2.65-.8,3.5-2.95l4-10.4V14.4a.184.184,0,0,0-.15-.05H93.7c-.05,0-.15.05-.15.1L91.1,21.5l-2.7-7.05c-.05-.05-.1-.1-.15-.1L84.4,14.3Zm-5.2,0H76.9a.16.16,0,0,0-.15.15v10.1a.16.16,0,0,0,.15.15h2.3a.16.16,0,0,0,.15-.15V14.5c.05-.1-.05-.2-.15-.2ZM78.1,9.7a1.65,1.65,0,1,0,1.65,1.65A1.665,1.665,0,0,0,78.1,9.7Zm20.3,7.85a1.665,1.665,0,0,1-1.65-1.65,1.65,1.65,0,0,1,3.3,0A1.665,1.665,0,0,1,98.4,17.55Zm0-3.1a1.432,1.432,0,0,0-1.45,1.5A1.451,1.451,0,0,0,98.4,17.4a1.475,1.475,0,0,0,0-2.95Zm.35,1.65.45.65h-.4l-.4-.6h-.35v.6H97.7v-1.7h.75c.4,0,.65.2.65.55.05.25-.1.4-.35.5Zm-.25-.8h-.4v.55h.4c.2,0,.35-.1.35-.25A.331.331,0,0,0,98.5,15.3Z" fill="#8c98a4"/>
  </g>
</svg>
