<svg id="virus_2_" data-name="virus (2)" xmlns="http://www.w3.org/2000/svg" width="40" height="40" viewBox="0 0 40 40">
  <path id="Path_297" data-name="Path 297" d="M38.828,14.9a1.172,1.172,0,0,0,0-2.344H36.165a9.876,9.876,0,0,0-.739-2.758l2.307-1.332a1.172,1.172,0,0,0-1.172-2.03l-2.31,1.333a10.045,10.045,0,0,0-2.017-2.017L33.567,3.44a1.172,1.172,0,1,0-2.03-1.172L30.206,4.574a9.877,9.877,0,0,0-2.758-.739V1.172a1.172,1.172,0,1,0-2.344,0V3.835a9.876,9.876,0,0,0-2.758.739L21.015,2.268a1.172,1.172,0,1,0-2.03,1.172l1.333,2.309A10.045,10.045,0,0,0,18.3,7.766l-2.31-1.333a1.172,1.172,0,1,0-1.172,2.03l2.307,1.332a9.9,9.9,0,0,0-.809,3.929,2.6,2.6,0,0,1-.128.808L14.553,12.9A1.172,1.172,0,0,0,12.9,14.553l1.637,1.637a2.6,2.6,0,0,1-.808.129,9.9,9.9,0,0,0-3.929.809L8.463,14.82a1.172,1.172,0,1,0-2.03,1.172L7.766,18.3a10.042,10.042,0,0,0-2.017,2.017l-2.31-1.333a1.172,1.172,0,1,0-1.172,2.03l2.307,1.332A9.879,9.879,0,0,0,3.835,25.1H1.172a1.172,1.172,0,1,0,0,2.344H3.835a9.876,9.876,0,0,0,.739,2.758L2.267,31.537a1.172,1.172,0,1,0,1.172,2.03l2.31-1.333a10.043,10.043,0,0,0,2.018,2.018l-1.334,2.31a1.172,1.172,0,1,0,2.03,1.172l1.332-2.307a9.88,9.88,0,0,0,2.757.739v2.663a1.172,1.172,0,0,0,2.344,0V36.2a22.379,22.379,0,0,0,3.515-.462l.679,2.534a1.172,1.172,0,0,0,2.264-.607l-.679-2.535q.84-.274,1.664-.613t1.611-.743l1.312,2.273a1.172,1.172,0,0,0,2.03-1.172l-1.312-2.272a22.383,22.383,0,0,0,2.812-2.158L30.646,32.3A1.172,1.172,0,1,0,32.3,30.647l-1.856-1.856a22.381,22.381,0,0,0,2.159-2.812l2.272,1.312a1.172,1.172,0,0,0,1.172-2.03l-2.273-1.312q.4-.788.743-1.61t.614-1.664l2.535.679a1.172,1.172,0,0,0,.607-2.264l-2.534-.679A22.37,22.37,0,0,0,36.2,14.9h2.624Zm-6.473,6.546A20.167,20.167,0,0,1,13.724,33.891a7.615,7.615,0,0,1,0-15.229,4.937,4.937,0,0,0,4.938-4.937,7.615,7.615,0,0,1,15.229,0,20.067,20.067,0,0,1-1.535,7.718Z" transform="translate(0 0)" fill="#4b7bec"/>
  <path id="Path_298" data-name="Path 298" d="M129.956,112.467a4.935,4.935,0,0,0-4.937,4.938,7.623,7.623,0,0,1-7.615,7.615,4.938,4.938,0,0,0,0,9.875,17.489,17.489,0,0,0,17.49-17.49A4.935,4.935,0,0,0,129.956,112.467ZM117.4,132.55a2.594,2.594,0,0,1,0-5.188,9.97,9.97,0,0,0,9.958-9.958,2.594,2.594,0,1,1,5.188,0A15.163,15.163,0,0,1,117.4,132.55Z" transform="translate(-103.68 -103.681)" fill="#4b7bec"/>
</svg>
