<svg xmlns="http://www.w3.org/2000/svg" width="19.923" height="14" viewBox="0 0 19.923 14">
  <g id="Group_1553" data-name="Group 1553" transform="translate(-1261 -3463)">
    <g id="Group_1549" data-name="Group 1549" transform="translate(1261 3463)">
      <path id="Path_312" data-name="Path 312" d="M20.506,6.191A2.517,2.517,0,0,0,18.749,4.38,65.212,65.212,0,0,0,10.961,4s-6.23,0-7.788.417A2.517,2.517,0,0,0,1.417,6.228,26.261,26.261,0,0,0,1,11.018a26.261,26.261,0,0,0,.417,4.827,2.517,2.517,0,0,0,1.757,1.739C4.731,18,10.961,18,10.961,18s6.23,0,7.788-.417a2.517,2.517,0,0,0,1.757-1.811,26.261,26.261,0,0,0,.417-4.754,26.262,26.262,0,0,0-.417-4.827Z" transform="translate(-0.999 -4)" fill="#4b7bec"/>
      <path id="Path_313" data-name="Path 313" d="M9.75,14.4l5.207-2.961L9.75,8.48Z" transform="translate(-1.826 -4.423)" fill="#fbfbfb"/>
    </g>
  </g>
</svg>
